<svg width="119" height="8" viewBox="0 0 119 8" fill="none" xmlns="http://www.w3.org/2000/svg">
<circle cx="2" cy="4" r="2" fill="#396D41"/>
<circle cx="7" cy="4" r="2" fill="#396D41"/>
<circle cx="12" cy="4" r="2" fill="#396D41"/>
<circle cx="17" cy="4" r="2" fill="#396D41"/>
<circle cx="22" cy="4" r="2" fill="#396D41"/>
<circle cx="27" cy="4" r="2" fill="#396D41"/>
<circle cx="32" cy="4" r="2" fill="#396D41"/>
<circle cx="37" cy="4" r="2" fill="#396D41"/>
<circle cx="42" cy="4" r="2" fill="#396D41"/>
<circle cx="47" cy="4" r="2" fill="#396D41"/>
<circle cx="52" cy="4" r="2" fill="#396D41"/>
<circle cx="57" cy="4" r="2" fill="#396D41"/>
<circle cx="62" cy="4" r="2" fill="#396D41"/>
<circle cx="67" cy="4" r="2" fill="#396D41"/>
<circle cx="72" cy="4" r="2" fill="#396D41"/>
<circle cx="77" cy="4" r="2" fill="#396D41"/>
<circle cx="82" cy="4" r="2" fill="#396D41"/>
<circle cx="87" cy="4" r="2" fill="#396D41"/>
<circle cx="92" cy="4" r="2" fill="#396D41"/>
<circle cx="97" cy="4" r="2" fill="#396D41"/>
<circle cx="102" cy="4" r="2" fill="#396D41"/>
<circle cx="107" cy="4" r="2" fill="#396D41"/>
<circle cx="115" cy="4" r="4" fill="#396D41"/>
</svg>
